<svg id="Layer_1" data-name="Layer 1" xmlns="http://www.w3.org/2000/svg" viewBox="0 0 378.56 503.75"><defs><style>.cls-1{fill:none;stroke-width:15px;}.cls-1,.cls-5,.cls-6,.cls-7,.cls-8{stroke:#231f20;stroke-miterlimit:10;}.cls-2,.cls-5{fill:#fff;}.cls-3,.cls-6,.cls-7,.cls-8{fill:#231f20;}.cls-4{fill:#010101;}.cls-5{stroke-width:4px;}.cls-7{stroke-width:3px;}.cls-8{stroke-width:2px;}</style></defs><circle class="cls-1" cx="189.28" cy="244.41" r="181.78"/><path class="cls-2" d="M428.84,647.13a6.13,6.13,0,0,1-5.21-2.94L216.87,302.44l28.4-17.18L452,627a6.1,6.1,0,0,1-2.06,8.36l-18,10.89A6.13,6.13,0,0,1,428.84,647.13Z" transform="translate(-125.79 -159.43)"/><path class="cls-2" d="M244.09,290.06,449,628.82a2.59,2.59,0,0,1-.87,3.55l-18,10.88a2.53,2.53,0,0,1-1.34.38,2.58,2.58,0,0,1-2.21-1.25l-205-338.75,22.42-13.57m2.37-9.61-6,3.63-22.42,13.56-6,3.62,3.62,6L420.64,646a9.57,9.57,0,0,0,13.16,3.24l18-10.88A9.58,9.58,0,0,0,455,625.19L250.08,286.44l-3.62-6Z" transform="translate(-125.79 -159.43)"/><path class="cls-2" d="M221,309.53a6.8,6.8,0,0,1-5.78-3.26l-36.3-60,34.18-20.68,36.3,60a6.74,6.74,0,0,1-2.29,9.27l-22.62,13.69A6.71,6.71,0,0,1,221,309.53Z" transform="translate(-125.79 -159.43)"/><path class="cls-2" d="M211.94,230.41l34.48,57a3.24,3.24,0,0,1-1.1,4.46L222.7,305.56a3.24,3.24,0,0,1-4.46-1.1l-34.49-57,28.19-17.05m2.36-9.61-6,3.62-28.18,17.05-6,3.63,3.62,6,34.49,57a10.24,10.24,0,0,0,14.07,3.47L249,297.86a10.27,10.27,0,0,0,3.46-14.08l-34.48-57-3.63-6Z" transform="translate(-125.79 -159.43)"/><rect class="cls-2" x="191.73" y="234.03" width="22.33" height="26.5" transform="translate(-224.5 -18.7) rotate(-31.17)"/><path class="cls-2" d="M204.4,235l10.09,16.68-13.11,7.93L191.29,242.9,204.4,235m2.37-9.62-6,3.63-13.12,7.93-6,3.63,3.63,6,10.09,16.68,3.62,6,6-3.62,13.12-7.93,6-3.63-3.63-6-10.09-16.68-3.62-6Z" transform="translate(-125.79 -159.43)"/><rect class="cls-3" x="189.2" y="234.73" width="22.33" height="16.75" transform="translate(-222.7 -20.6) rotate(-31.17)"/><path class="cls-2" d="M204.4,235l5,8.34-13.12,7.93-5-8.34L204.4,235m2.37-9.62-6,3.63-13.12,7.93-6,3.63,3.63,6,5,8.34,3.63,6,6-3.62,13.11-7.93,6-3.63-3.62-6-5.05-8.34-3.62-6Z" transform="translate(-125.79 -159.43)"/><path class="cls-3" d="M300,416.57a8.77,8.77,0,0,1-7.47-4.21A8.74,8.74,0,0,1,300,399.11a8.73,8.73,0,1,1,0,17.46Z" transform="translate(-125.79 -159.43)"/><path class="cls-2" d="M300,402.61a5.24,5.24,0,1,1-2.7.76,5.22,5.22,0,0,1,2.7-.76m0-7h0a12.23,12.23,0,1,0,10.47,5.9,12.25,12.25,0,0,0-10.47-5.9Z" transform="translate(-125.79 -159.43)"/><path class="cls-3" d="M318.83,448.31a8.73,8.73,0,1,1,7.47-13.25,8.75,8.75,0,0,1-2.95,12A8.8,8.8,0,0,1,318.83,448.31Z" transform="translate(-125.79 -159.43)"/><path class="cls-2" d="M318.82,434.35a5.23,5.23,0,1,1-2.7.76,5.14,5.14,0,0,1,2.7-.76m0-7h0a12.23,12.23,0,1,0,10.47,5.9,12.18,12.18,0,0,0-10.47-5.9Z" transform="translate(-125.79 -159.43)"/><path class="cls-3" d="M338.07,480.1a8.77,8.77,0,0,1-7.47-4.21,8.73,8.73,0,0,1,2.95-12,8.73,8.73,0,1,1,4.52,16.2Z" transform="translate(-125.79 -159.43)"/><path class="cls-2" d="M338.06,466.14a5.23,5.23,0,0,1,2.71,9.7,5.14,5.14,0,0,1-2.7.76,5.23,5.23,0,0,1,0-10.46m0-7h0a12.23,12.23,0,1,0,10.47,5.9,12.19,12.19,0,0,0-10.47-5.9Z" transform="translate(-125.79 -159.43)"/><path class="cls-3" d="M362.58,520.62a8.8,8.8,0,0,1-7.47-4.21,8.73,8.73,0,0,1,7.46-13.25,8.73,8.73,0,1,1,0,17.46Z" transform="translate(-125.79 -159.43)"/><path class="cls-2" d="M362.57,506.66a5.23,5.23,0,1,1-2.7.76,5.14,5.14,0,0,1,2.7-.76m0-7h0a12.23,12.23,0,1,0,10.47,5.9,12.18,12.18,0,0,0-10.47-5.9Z" transform="translate(-125.79 -159.43)"/><path class="cls-3" d="M380.27,549.84a8.72,8.72,0,1,1,8.47-6.64,8.73,8.73,0,0,1-8.47,6.64Z" transform="translate(-125.79 -159.43)"/><path class="cls-2" d="M380.26,535.89a5.22,5.22,0,1,1-2.71.75,5.19,5.19,0,0,1,2.71-.75m0-7h0a12.2,12.2,0,0,0-11.87,9.3,12.15,12.15,0,0,0,1.41,9.25,12.24,12.24,0,0,0,16.79,4.14,12.24,12.24,0,0,0,4.13-16.8,12.3,12.3,0,0,0-10.46-5.89Z" transform="translate(-125.79 -159.43)"/><path class="cls-3" d="M402.23,586.14a8.77,8.77,0,0,1-7.47-4.21,8.73,8.73,0,0,1,7.46-13.25,8.73,8.73,0,0,1,4.52,16.2A8.65,8.65,0,0,1,402.23,586.14Z" transform="translate(-125.79 -159.43)"/><path class="cls-2" d="M402.22,572.18a5.24,5.24,0,1,1-2.7.76,5.31,5.31,0,0,1,2.7-.76m0-7h0a12.2,12.2,0,0,0-11.87,9.3,12.15,12.15,0,0,0,1.41,9.25,12.23,12.23,0,1,0,10.46-18.55Z" transform="translate(-125.79 -159.43)"/><path class="cls-3" d="M181.87,251.69a6,6,0,0,1-5.09-2.87l-26.69-44.11a10.82,10.82,0,0,1,3.65-14.84l21.11-12.77a10.81,10.81,0,0,1,14.84,3.65l26.69,44.11a5.94,5.94,0,0,1-2,8.17l-29.43,17.8A6,6,0,0,1,181.87,251.69Z" transform="translate(-125.79 -159.43)"/><path class="cls-2" d="M180.44,179a7.32,7.32,0,0,1,6.26,3.53l26.68,44.11a2.44,2.44,0,0,1-.82,3.35l-29.43,17.81a2.45,2.45,0,0,1-3.36-.83L153.09,202.9a7.29,7.29,0,0,1,2.47-10l21.1-12.77a7.24,7.24,0,0,1,3.78-1.06m0-7h0a14.2,14.2,0,0,0-7.4,2.07l-21.11,12.77a14.31,14.31,0,0,0-4.83,19.64l26.68,44.12a9.46,9.46,0,0,0,13,3.19L216.18,236a9.45,9.45,0,0,0,3.19-13l-26.68-44.11a14.39,14.39,0,0,0-12.25-6.9Z" transform="translate(-125.79 -159.43)"/><g id="layer1"><g id="path2219"><path class="cls-4" d="M289.36,658.18a68,68,0,0,1-22.44-3.7c-15.21-5-24.65-15.94-24.65-28.52,0-16.37,15.27-29.7,34-29.7s34.07,13.33,34.07,29.7a26.61,26.61,0,0,1-3.21,12.61c11-3.82,23.51-11,23.83-59,.05-7.57-1.54-17.84-3.34-27.6a118.86,118.86,0,0,1-19.6,1.58c-22.76,0-43.46-8.93-58.27-25.15-15.9-17.41-23.69-42-21.38-67.41,2.69-29.53,21.5-54.07,43.28-82.49,3-4,6.17-8.06,9.34-12.26-8.42-35-12.35-58.1-12.35-72.62,0-38.35,17.39-67.14,31.36-90.27,6.8-11.26,13.23-21.9,16.42-31.66l.7-2.14,2.07-.89a4.21,4.21,0,0,1,1.71-.33c4.82,0,12,6.33,14.26,8.48,23.34,21.92,28.94,81.44,24,116-6.47,45.37-23.76,80.57-51.4,104.65,1.64,6.45,3.35,13.13,5.11,19.93,1.7-.11,3.42-.17,5.13-.17,43,0,74.2,27.34,74.23,65,0,30.62-17.85,54.81-48,65.49,2.31,13,3.51,23.54,3.56,31.35.19,26.2-6,46.75-18.45,61.09-12.66,14.58-26.85,17.07-30.9,17.48A88.31,88.31,0,0,1,289.36,658.18ZM248.48,464.55c.06,57,37.23,72.06,56.9,72.06,5.36,0,11.65-2,18-5.6-5.68-25.59-14-56.6-22.08-86.91-12.18,10.42-19.42,27.45-19.42,34.75,0,6.2,1,26.94,14,34.17,1,.52,1.95.94,2.71,1.24L295,523.6a28.54,28.54,0,0,1-3.82-1.74c-12.59-6.41-36.27-24.22-36.27-46.09,0-20.79,13.77-45.47,40.16-54.74q-1.5-5.59-3-11.15l-.55.42C269.13,427.27,249.74,441.92,248.48,464.55Zm69.23-28.66c7.44,28.65,15,58,20.69,83.13,10-10.65,15.85-23.67,15.85-36,0-42.55-18.25-47.47-32-47.47A26.94,26.94,0,0,0,317.71,435.89Zm12.63-204.72c-8.52,3.11-43.21,18.46-43.21,61.46,0,11,2.71,28.42,8.5,54.5,5.08-6.25,10-11.72,14.44-16.72,14.4-16.1,25.78-28.82,31-53.34C348,244.79,334.88,233.9,330.34,231.17Z" transform="translate(-125.79 -159.43)"/><path class="cls-2" d="M321.21,173.3s4.2,1.22,10.56,7.2c21.38,20.08,27.48,76.71,22.49,111.64-7.48,52.45-29,84.44-52.06,103.57,2.25,8.89,4.58,18,6.95,27.11a70.73,70.73,0,0,1,8.9-.56c39.08,0,69.2,24.37,69.23,60,0,30.42-18.82,53.1-48.7,62.09,2.67,14.22,4.2,26.18,4.26,34.78.42,57.36-31.41,72.19-44.86,73.57a84.73,84.73,0,0,1-8.63.46,63,63,0,0,1-20.87-3.45c-11.94-3.93-21.21-12.46-21.21-23.77,0-13.64,13-24.7,29-24.7s29.06,11.06,29.06,24.7c0,8.61-5.19,16.17-13,20.6a65.29,65.29,0,0,0,14.2-2.5c14.47-4.78,29.12-12.37,29.47-64.4.06-8.61-1.76-20.06-4.36-33.5a110,110,0,0,1-23.58,2.44c-47.05,0-79-39.84-74.67-87.1,3-32.61,26.57-58.79,53.06-94.1C279,336.57,273.68,310,273.68,293.67c0-55.56,37.47-89.62,47.53-120.37h0M293.09,358.52c23.93-32.11,45-43.33,52.87-80.4,9.18-43.08-15.24-52.36-15.24-52.36s-48.59,14.4-48.59,66.87c0,14.22,4.46,37.89,11,65.89m12.28,183.09c7.34,0,15.71-3,23.63-8.19-6.14-28.27-15.49-63-24.78-97.63-17,10.29-27.37,32.91-27.37,43.06,0,12,3.08,31.1,16.69,38.59-11.51-5.84-33.6-22.45-33.6-41.67s13.54-44,41.23-51.38c-2.07-7.73-4.12-15.43-6.1-23-25.9,19.79-50.16,35.71-51.59,63,0,60.41,39.71,77.2,61.89,77.2m30-12.93c13.24-11,23.85-27.81,23.85-45.71,0-30.88-9.51-52.47-37-52.47a32.87,32.87,0,0,0-10.67,1.8c8.83,34,17.75,68.23,23.79,96.38m-41.86-11.24c1.2.6,2.29,1.11,3.23,1.47a25,25,0,0,1-3.23-1.47m15.86-358,1.6,12.79c-3.19,8.64-8.81,17.95-15.24,28.6-14.29,23.66-32.08,53.11-32.08,92.85,0,14.6,3.8,37.39,11.94,71.48-2.67,3.54-5.32,7-7.9,10.35-22.25,29-41.47,54.12-44.29,85.09-2.44,26.82,5.83,52.79,22.67,71.23,15.77,17.27,37.77,26.78,62,26.78a125.29,125.29,0,0,0,15.53-.94c1.38,8,2.45,15.94,2.41,21.93-.14,21.31-2.82,36.37-8,44.76a21.51,21.51,0,0,1-2.72,3.62q.06-1,.06-2c0-19.13-17.52-34.7-39.06-34.7s-39,15.57-39,34.7c0,14.82,10.76,27.56,28.08,33.27a72.94,72.94,0,0,0,24,3.95,95.41,95.41,0,0,0,9.65-.51c4.51-.47,20.31-3.21,34.16-19.19,13.26-15.28,19.88-36.94,19.68-64.4A188.61,188.61,0,0,0,349.91,551a78.29,78.29,0,0,0,32-23.38c10-12.58,15.32-28.25,15.32-45.31a65.91,65.91,0,0,0-23.5-51c-14.43-12.27-34.23-19-55.73-19h-1.3q-1.71-6.63-3.35-13.06a144.61,144.61,0,0,0,29.45-38c10.5-19.33,17.67-42.08,21.31-67.64,4.9-34.26.16-96.2-25.54-120.34-7.53-7.07-13.08-9.07-14.6-9.51l-14.62-4.27Zm-11,176.66c-4.19-20.13-6.24-34.44-6.24-43.46,0-18.4,6.78-33.54,20.17-45a69.84,69.84,0,0,1,17.35-10.78C334,240.62,341.51,251,336.18,276c-4.94,23.22-15.38,34.89-29.84,51-2.53,2.84-5.2,5.83-8,9ZM341,507.86c-4.92-21-10.91-44.3-16.89-67.34,8.77.18,25.17,2.89,25.17,42.45,0,8.31-3,17-8.28,24.89Zm-42.74.74c-8.39-4.73-11.38-18.45-11.38-29.75,0-4.35,4.09-15.72,11.84-25.05,7,26.06,13.87,52.22,18.94,74.56a29.71,29.71,0,0,1-12.26,3.25,49.21,49.21,0,0,1-32.47-13.29,52.77,52.77,0,0,1-9.49-11.72c.58.64,1.17,1.29,1.78,1.93a93.8,93.8,0,0,0,23.68,17.75,33.84,33.84,0,0,0,4.42,2l7.13-18.69c-.41-.16-1.12-.46-2.19-1Z" transform="translate(-125.79 -159.43)"/></g></g><g id="layer1-2" data-name="layer1"><g id="path2219-2" data-name="path2219"><path class="cls-4" d="M289.36,654.68A64.62,64.62,0,0,1,268,651.15C254.29,646.63,245.77,637,245.77,626c0-14.44,13.7-26.2,30.54-26.2s30.57,11.76,30.57,26.2a24.42,24.42,0,0,1-8.9,18.48,58.05,58.05,0,0,0,8.08-1.8c11.85-3.92,28.08-9.28,28.44-63,.06-8.76-2-20.81-4.05-31.7a113.32,113.32,0,0,1-22.39,2.15c-21.77,0-41.54-8.52-55.68-24-15.24-16.69-22.71-40.28-20.48-64.73,2.59-28.52,20.23-51.54,42.57-80.69,3.36-4.38,6.84-8.92,10.35-13.6-8.62-35.6-12.64-58.94-12.64-73.4,0-37.37,16.39-64.51,30.86-88.46,6.91-11.44,13.43-22.24,16.75-32.38l.21-.64.62-.27a1.21,1.21,0,0,1,.41-.07c1.85,0,6.88,3,11.77,7.56,22.48,21.11,27.77,79.15,22.95,112.94-6.48,45.41-23.93,80.36-51.87,103.91,2,8,4.18,16.38,6.4,24.92a71.41,71.41,0,0,1,7.77-.42c41,0,70.7,25.87,70.73,61.52,0,30-18.09,53.49-48.48,63.13,2.62,14.2,4,25.54,4,33.73.19,25.33-5.74,45.1-17.6,58.77-9.38,10.82-20.93,15.51-28.61,16.3A86.82,86.82,0,0,1,289.36,654.68Zm4.83-250.74-4.72,3.57c-23.19,17.52-43.22,32.66-44.49,57,0,59.8,39.51,75.62,60.4,75.62,6.6,0,14.36-2.62,21.93-7.39-5.93-27.14-14.93-60.7-23.64-93.16l-.37-1.4c-15.07,10.15-24.95,30.84-24.95,40.69,0,6.69,1.14,29.13,15.89,37.26,1.16.59,2.2,1.06,3.08,1.41l-1.07,2.8a25.55,25.55,0,0,1-3.41-1.56c-13.83-7-34.4-24.26-34.4-43,0-20.31,14-44.6,40.89-52.43C297.6,416.83,295.87,410.35,294.19,403.94Zm19.44,30.15c8.26,31.82,16.8,64.69,22.71,91.81,13.45-12,21.41-27.85,21.41-42.93,0-34.3-11.6-51-35.47-51a31.2,31.2,0,0,0-8.86,1.3Zm17-206.73a76.4,76.4,0,0,0-23.35,13.38c-15.71,13.18-23.67,30.64-23.67,51.89,0,12.2,3.24,32.08,10.2,62.42,6.63-8.65,13.09-15.87,18.85-22.31,14.75-16.49,26.4-29.51,31.82-54.94C352.68,239.4,334,228.9,330.65,227.36Z" transform="translate(-125.79 -159.43)"/><path class="cls-3" d="M321.21,173.3s4.2,1.22,10.56,7.2c21.38,20.08,27.48,76.71,22.5,111.64-7.49,52.45-29,84.44-52.07,103.57,2.25,8.89,4.58,18,6.95,27.11a70.73,70.73,0,0,1,8.9-.56c39.08,0,69.2,24.37,69.23,60,0,30.42-18.82,53.1-48.7,62.09,2.67,14.22,4.2,26.18,4.26,34.78.42,57.36-31.41,72.19-44.86,73.57a84.73,84.73,0,0,1-8.63.46,63,63,0,0,1-20.87-3.45c-11.94-3.93-21.21-12.46-21.21-23.77,0-13.64,13-24.7,29-24.7s29.06,11.06,29.06,24.7c0,8.61-5.19,16.17-13,20.6a65.29,65.29,0,0,0,14.2-2.5c14.47-4.78,29.12-12.37,29.47-64.4.06-8.61-1.76-20.06-4.36-33.5a110,110,0,0,1-23.58,2.44c-47.05,0-79-39.84-74.67-87.1,3-32.61,26.57-58.79,53.06-94.1C279,336.57,273.68,310,273.68,293.67c0-55.56,37.47-89.62,47.53-120.37h0M293.09,358.52c23.93-32.11,45-43.33,52.87-80.4,9.18-43.08-15.24-52.36-15.24-52.36s-48.59,14.4-48.59,66.87c0,14.22,4.46,37.89,11,65.89m12.28,183.09c7.34,0,15.71-3,23.63-8.19-6.14-28.27-15.49-63-24.78-97.63-17,10.29-27.37,32.91-27.37,43.06,0,12,3.08,31.1,16.69,38.59-11.51-5.84-33.6-22.45-33.6-41.67s13.54-44,41.23-51.38c-2.07-7.73-4.12-15.43-6.1-23-25.9,19.79-50.16,35.71-51.59,63,0,60.41,39.71,77.2,61.89,77.2m30-12.93c13.24-11,23.85-27.81,23.85-45.71,0-30.88-9.51-52.47-37-52.47a32.87,32.87,0,0,0-10.67,1.8c8.83,34,17.75,68.23,23.79,96.38m-41.86-11.24c1.2.6,2.29,1.11,3.23,1.47a25,25,0,0,1-3.23-1.47m24.25-348.27.38,3.79c-3.33,9.81-9.69,20.34-16.42,31.48-13.84,22.92-31.07,51.44-31.07,89.23,0,14.49,4,37.73,12.52,73.06-3.37,4.48-6.7,8.82-9.92,13-21.59,28.18-40.24,52.51-42.87,81.47-2.27,24.86,5.34,48.87,20.86,65.87,14.43,15.8,34.59,24.5,56.79,24.5a115.63,115.63,0,0,0,21.2-1.89c2,10.42,3.8,21.69,3.74,29.93-.15,22.92-3.1,38.74-9,48.37-5.05,8.24-11.59,11-18.41,13.2-.91.3-2,.59-3.19.86a25.14,25.14,0,0,0,6-16.11c0-15.27-14.38-27.7-32.06-27.7s-32,12.43-32,27.7c0,11.69,8.92,21.89,23.27,26.62a66.23,66.23,0,0,0,21.81,3.6,87.29,87.29,0,0,0,8.94-.48c8-.81,19.92-5.66,29.59-16.8,12.1-14,18.15-34.07,18-59.77-.06-8-1.34-19-3.83-32.7,30.29-10.09,48.27-33.89,48.27-64.15,0-36.52-30.4-63-72.23-63-2.22,0-4.45.1-6.64.3-2-7.76-4-15.4-5.84-22.76a136.84,136.84,0,0,0,31.13-38.95c10.1-18.59,17-40.56,20.53-65.29,4.87-34.11-.55-92.79-23.4-114.25-6.7-6.28-11.28-7.75-11.78-7.89l-4.26-1.25Zm-23.2,182.46c-6.45-28.5-9.46-47.33-9.46-59,0-20.75,7.75-37.79,23.05-50.67a75.37,75.37,0,0,1,22.35-13,24.92,24.92,0,0,1,9,8.77c5.85,9.39,7.08,23.13,3.54,39.73-5.34,25-16.87,37.93-31.47,54.25-5.21,5.83-11,12.3-17,19.89ZM246.48,464.49c1.28-23.58,21-38.5,43.89-55.78l2.94-2.22c1.44,5.47,2.88,10.9,4.2,15.84a57.87,57.87,0,0,0-29.78,21.6c-6.85,9.55-10.79,21.16-10.79,31.84,0,20.91,23,38.12,35.2,44.32a26.22,26.22,0,0,0,3.58,1.63l2.14-5.6c-.82-.33-1.81-.78-2.91-1.34-14-7.74-15.1-29.45-15.1-35.93,0-7.84,7.93-27.38,22.56-38.23,8.53,31.83,17.32,64.65,23.21,91.38-7.05,4.27-14.18,6.61-20.25,6.61a56.37,56.37,0,0,1-37.22-15.15c-14.16-13.09-21.66-33.48-21.67-59Zm68.77-30.13a29.35,29.35,0,0,1,7-.86c22.86,0,34,16.18,34,49.47,0,13.93-7,28.6-19,40-5.84-26.45-14-58-22-88.66Z" transform="translate(-125.79 -159.43)"/></g></g><path class="cls-5" d="M322.93,268.07h26.2a0,0,0,0,1,0,0V664a2.59,2.59,0,0,1-2.59,2.59h-21a2.59,2.59,0,0,1-2.59-2.59V268.07a0,0,0,0,1,0,0Z" transform="translate(-319.18 82) rotate(-31.17)"/><path class="cls-5" d="M199.46,233.89H232.4a0,0,0,0,1,0,0v66.62a3.25,3.25,0,0,1-3.25,3.25H202.71a3.25,3.25,0,0,1-3.25-3.25V233.89a0,0,0,0,1,0,0Z" transform="translate(-233.77 -8.83) rotate(-31.17)"/><rect class="cls-5" x="195.23" y="237.53" width="15.33" height="19.5" transform="translate(-224.5 -18.7) rotate(-31.17)"/><rect class="cls-6" x="192.7" y="238.23" width="15.33" height="9.75" transform="translate(-222.7 -20.6) rotate(-31.17)"/><circle class="cls-3" cx="174.24" cy="248.41" r="5.23"/><circle class="cls-6" cx="193.03" cy="280.15" r="5.23"/><circle class="cls-6" cx="212.27" cy="311.94" r="5.23"/><circle class="cls-3" cx="236.78" cy="352.46" r="5.23"/><circle class="cls-7" cx="254.47" cy="381.68" r="5.23"/><circle class="cls-8" cx="276.43" cy="417.98" r="5.23"/><path class="cls-6" d="M169.64,182.05h24.67a7.31,7.31,0,0,1,7.31,7.31v51.56a2.44,2.44,0,0,1-2.44,2.44h-34.4a2.44,2.44,0,0,1-2.44-2.44V189.36a7.31,7.31,0,0,1,7.31-7.31Z" transform="translate(-209.62 -34.51) rotate(-31.17)"/></svg>